<svg data-name="sheik" class="stock-icon stock-sheik" xmlns="http://www.w3.org/2000/svg">
  <g>
    <polygon class="swatch-1" points="544 736 544 767.493 224 767.835 224 736 448 736 480 736 512 736 544 736 544 736"/>
    <polygon class="swatch-1" points="544 736 544 767.493 224 767.835 224 736 448 736 480 736 512 736 544 736 544 736"/>
    <polygon class="swatch-1" points="256 0 544 0 544 32 480 32 416 32 384 32 320 32 288 32 256 32 256 0 256 0"/>
    <polygon class="swatch-1" points="256 0 544 0 544 32 480 32 416 32 384 32 320 32 288 32 256 32 256 0 256 0"/>
    <polygon class="swatch-1" points="32 576 0.541 576 0.182 575.671 0.007 575.25 0 384 32 384 32 416 32 544 32 576 32 576"/>
    <polygon class="swatch-1" points="32 576 0.541 576 0.182 575.671 0.007 575.25 0 384 32 384 32 416 32 544 32 576 32 576"/>
    <polygon class="swatch-1" points="736 352 767.489 352 767.832 544 736 544 736 480 736 448 736 352 736 352"/>
    <polygon class="swatch-1" points="736 352 767.489 352 767.832 544 736 544 736 480 736 448 736 352 736 352"/>
    <polygon class="swatch-1" points="640 224 671.95 224 671.95 255.927 704 255.927 704 320 672 320 672 288 640 288 640 256 640 224 640 224"/>
    <polygon class="swatch-1" points="640 224 671.95 224 671.95 255.927 704 255.927 704 320 672 320 672 288 640 288 640 256 640 224 640 224"/>
    <polygon class="swatch-1" points="128 256 128 128 160 128 160 160 160 192 160 224 160 256 128 256 128 256"/>
    <polygon class="swatch-1" points="128 256 128 128 160 128 160 160 160 192 160 224 160 256 128 256 128 256"/>
    <polygon class="swatch-1" points="128 672 96.07 672 96.07 640.106 64 640.106 64 608 128 608 128 640 128 672 128 672"/>
    <polygon class="swatch-1" points="128 672 96.07 672 96.07 640.106 64 640.106 64 608 128 608 128 640 128 672 128 672"/>
    <polygon class="swatch-1" points="608 128 640 128 640 224 608 224 608 192 608 160 608 128 608 128"/>
    <polygon class="swatch-1" points="608 128 640 128 640 224 608 224 608 192 608 160 608 128 608 128"/>
    <polygon class="swatch-1" points="576 64 608 64 608 128 576 128 576 96 576 64 576 64"/>
    <polygon class="swatch-1" points="576 64 608 64 608 128 576 128 576 96 576 64 576 64"/>
    <polygon class="swatch-1" points="192 704 128 704 128 672 160 672 192 672 192 704 192 704"/>
    <polygon class="swatch-1" points="192 704 128 704 128 672 160 672 192 672 192 704 192 704"/>
    <polygon class="swatch-1" points="32 352 32 320 64 320 64 352 64 384 32 384 32 352 32 352"/>
    <polygon class="swatch-1" points="32 352 32 320 64 320 64 352 64 384 32 384 32 352 32 352"/>
    <polygon class="swatch-1" points="224 736 192 736 192 704 224 704 224 736 224 736"/>
    <polygon class="swatch-1" points="224 736 192 736 192 704 224 704 224 736 224 736"/>
    <polygon class="swatch-1" points="704 576 704 608 672 608 672 576 704 576 704 576"/>
    <polygon class="swatch-1" points="704 576 704 608 672 608 672 576 704 576 704 576"/>
    <polygon class="swatch-1" points="576 704 576 736 544 736 544 704 576 704 576 704"/>
    <polygon class="swatch-1" points="576 704 576 736 544 736 544 704 576 704 576 704"/>
    <polygon class="swatch-1" points="672 608 672 640 640 640 640 608 672 608 672 608"/>
    <polygon class="swatch-1" points="672 608 672 640 640 640 640 608 672 608 672 608"/>
    <polygon class="swatch-2" points="256 0 256 32 224 32 224 0 256 0 256 0"/>
    <polygon class="swatch-2" points="256 0 256 32 224 32 224 0 256 0 256 0"/>
    <polygon class="swatch-2" points="192 64 192 32 224 32 224 64 192 64 192 64"/>
    <polygon class="swatch-2" points="192 64 192 32 224 32 224 64 192 64 192 64"/>
    <polygon class="swatch-1" points="640 640 640 672 608 672 608 640 640 640 640 640"/>
    <polygon class="swatch-1" points="640 640 640 672 608 672 608 640 640 640 640 640"/>
    <polygon class="swatch-1" points="736 544 736 576 704 576 704 544 736 544 736 544"/>
    <polygon class="swatch-1" points="736 544 736 576 704 576 704 544 736 544 736 544"/>
    <polygon class="swatch-1" points="64 608 32 608 32 576 64 576 64 608 64 608"/>
    <polygon class="swatch-1" points="64 608 32 608 32 576 64 576 64 608 64 608"/>
    <polygon class="swatch-1" points="608 672 608 704 576 704 576 672 608 672 608 672"/>
    <polygon class="swatch-1" points="608 672 608 704 576 704 576 672 608 672 608 672"/>
    <polygon class="swatch-1" points="544 32 576 32 576 64 544 64 544 32 544 32"/>
    <polygon class="swatch-1" points="544 32 576 32 576 64 544 64 544 32 544 32"/>
    <polygon class="swatch-2" points="160 96 160 64 192 64 192 96 160 96 160 96"/>
    <polygon class="swatch-2" points="160 96 160 64 192 64 192 96 160 96 160 96"/>
    <polygon class="swatch-1" points="160 96 192 96 192 128 160 128 160 96 160 96"/>
    <polygon class="swatch-1" points="160 96 192 96 192 128 160 128 160 96 160 96"/>
    <polygon class="swatch-1" points="704 320 736 320 736 352 704 352 704 320 704 320"/>
    <polygon class="swatch-1" points="704 320 736 320 736 352 704 352 704 320 704 320"/>
    <polygon class="swatch-2" points="32 352 32 384 0 384 0 352 32 352 32 352"/>
    <polygon class="swatch-2" points="32 352 32 384 0 384 0 352 32 352 32 352"/>
    <polygon class="swatch-1" points="96 288 96 256 128 256 128 288 96 288 96 288"/>
    <polygon class="swatch-1" points="96 288 96 256 128 256 128 288 96 288 96 288"/>
    <polygon class="swatch-1" points="64 320 64 288 96 288 96 320 64 320 64 320"/>
    <polygon class="swatch-1" points="64 320 64 288 96 288 96 320 64 320 64 320"/>
    <polygon class="swatch-2" points="224 736 224 704 192 704 192 672 224 672 224 640 256 640 256 672 256 704 448 704 448 736 224 736 224 736"/>
    <polygon class="swatch-2" points="224 736 224 704 192 704 192 672 224 672 224 640 256 640 256 672 256 704 448 704 448 736 224 736 224 736"/>
    <polygon class="swatch-3" points="448 736 448 704 480 704 480 736 448 736 448 736"/>
    <polygon class="swatch-3" points="448 736 448 704 480 704 480 736 448 736 448 736"/>
    <polygon class="swatch-4" points="480 736 480 704 512 704 512 736 480 736 480 736"/>
    <polygon class="swatch-4" points="480 736 480 704 512 704 512 736 480 736 480 736"/>
    <polygon class="swatch-2" points="512 736 512 704 544 704 544 736 512 736 512 736"/>
    <polygon class="swatch-2" points="512 736 512 704 544 704 544 736 512 736 512 736"/>
    <polygon class="swatch-3" points="320 32 384 32 384 64 352 64 352 96 288 96 288 64 320 64 320 32 320 32"/>
    <polygon class="swatch-3" points="320 32 384 32 384 64 352 64 352 96 288 96 288 64 320 64 320 32 320 32"/>
    <polygon class="swatch-3" points="416 32 480 32 480 64 480 96 448 96 448 64 416 64 416 32 416 32"/>
    <polygon class="swatch-3" points="416 32 480 32 480 64 480 96 448 96 448 64 416 64 416 32 416 32"/>
    <polygon class="swatch-5" points="480 64 480 32 544 32 544 64 512 64 480 64 480 64"/>
    <polygon class="swatch-5" points="480 64 480 32 544 32 544 64 512 64 480 64 480 64"/>
    <polygon class="swatch-2" points="416 32 416 64 384 64 384 32 416 32 416 32"/>
    <polygon class="swatch-2" points="416 32 416 64 384 64 384 32 416 32 416 32"/>
    <polygon class="swatch-5" points="256 32 288 32 288 64 256 64 256 32 256 32"/>
    <polygon class="swatch-5" points="256 32 288 32 288 64 256 64 256 32 256 32"/>
    <polygon class="swatch-2" points="288 64 288 32 320 32 320 64 288 64 288 64"/>
    <polygon class="swatch-2" points="288 64 288 32 320 32 320 64 288 64 288 64"/>
    <polygon class="swatch-6" points="32 544 32 416 64 416 64 480 64 512.024 96.05 512.024 96.05 543.875 128.101 543.875 128.101 512.151 159.73 512.151 159.992 512.72 160.006 543.214 160.157 543.647 160.482 544 192 544 192 608 128 608 128 576 64 576 64 544 32 544 32 544"/>
    <polygon class="swatch-6" points="32 544 32 416 64 416 64 480 64 512.024 96.05 512.024 96.05 543.875 128.101 543.875 128.101 512.151 159.73 512.151 159.992 512.72 160.006 543.214 160.157 543.647 160.482 544 192 544 192 608 128 608 128 576 64 576 64 544 32 544 32 544"/>
    <polygon class="swatch-7" points="32 544 64 544 64 576 32 576 32 544 32 544"/>
    <polygon class="swatch-7" points="32 544 64 544 64 576 32 576 32 544 32 544"/>
    <polygon class="swatch-7" points="64 416 32 416 32 384 64 384 64 416 64 416"/>
    <polygon class="swatch-7" points="64 416 32 416 32 384 64 384 64 416 64 416"/>
    <polygon class="swatch-8" points="704 352 736 352 736 448 704 448 704 352 704 352"/>
    <polygon class="swatch-8" points="704 352 736 352 736 448 704 448 704 352 704 352"/>
    <polygon class="swatch-8" points="736 544 704 544 704 480 736 480 736 544 736 544"/>
    <polygon class="swatch-8" points="736 544 704 544 704 480 736 480 736 544 736 544"/>
    <polygon class="swatch-7" points="736 480 704 480 704 448 736 448 736 480 736 480"/>
    <polygon class="swatch-7" points="736 480 704 480 704 448 736 448 736 480 736 480"/>
    <polygon class="swatch-9" points="640 288 672 288 672 320 640 320 640 288 640 288"/>
    <polygon class="swatch-9" points="640 288 672 288 672 320 640 320 640 288 640 288"/>
    <polygon class="swatch-8" points="704 320 704 352 672 352 672 320 704 320 704 320"/>
    <polygon class="swatch-8" points="704 320 704 352 672 352 672 320 704 320 704 320"/>
    <polygon class="swatch-8" points="608 224 640 224 640 256 608 256 608 224 608 224"/>
    <polygon class="swatch-8" points="608 224 640 224 640 256 608 256 608 224 608 224"/>
    <polygon class="swatch-10" points="608 256 640 256 640 288 608 288 608 256 608 256"/>
    <polygon class="swatch-10" points="608 256 640 256 640 288 608 288 608 256 608 256"/>
    <polygon class="swatch-2" points="160 192 160 160 192 160 192 192 160 192 160 192"/>
    <polygon class="swatch-2" points="160 192 160 160 192 160 192 192 160 192 160 192"/>
    <polygon class="swatch-5" points="192 160 160 160 160 128 192 128 192 160 192 160"/>
    <polygon class="swatch-5" points="192 160 160 160 160 128 192 128 192 160 192 160"/>
    <polygon class="swatch-3" points="160 192 192 192 192 224 160 224 160 192 160 192"/>
    <polygon class="swatch-3" points="160 192 192 192 192 224 160 224 160 192 160 192"/>
    <polygon class="swatch-2" points="160 224 192 224 192 256 160 256 160 224 160 224"/>
    <polygon class="swatch-2" points="160 224 192 224 192 256 160 256 160 224 160 224"/>
    <polygon class="swatch-7" points="128 288 128 256 160 256 160 288 128 288 128 288"/>
    <polygon class="swatch-7" points="128 288 128 256 160 256 160 288 128 288 128 288"/>
    <polygon class="swatch-7" points="128 608 192 608 192 544 224 544 224 512 256 512 256 544 256 576 224 576 224 608 224 640 160 640 128 640 128 608 128 608"/>
    <polygon class="swatch-7" points="128 608 192 608 192 544 224 544 224 512 256 512 256 544 256 576 224 576 224 608 224 640 160 640 128 640 128 608 128 608"/>
    <polygon class="swatch-7" points="64 576 128 576 128 608 64 608 64 576 64 576"/>
    <polygon class="swatch-7" points="64 576 128 576 128 608 64 608 64 576 64 576"/>
    <polygon class="swatch-8" points="128 640 160 640 160 672 128 672 128 640 128 640"/>
    <polygon class="swatch-8" points="128 640 160 640 160 672 128 672 128 640 128 640"/>
    <polygon class="swatch-2" points="576 128 608 128 608 160 576 160 576 192 544 192 544 160 544 128 576 128 576 128"/>
    <polygon class="swatch-2" points="576 128 608 128 608 160 576 160 576 192 544 192 544 160 544 128 576 128 576 128"/>
    <polygon class="swatch-5" points="576 192 576 160 608 160 608 192 576 192 576 192"/>
    <polygon class="swatch-5" points="576 192 576 160 608 160 608 192 576 192 576 192"/>
    <polygon class="swatch-2" points="576 192 608 192 608 224 576 224 576 192 576 192"/>
    <polygon class="swatch-2" points="576 192 608 192 608 224 576 224 576 192 576 192"/>
    <polygon class="swatch-3" points="576 128 544 128 544 96 576 96 576 128 576 128"/>
    <polygon class="swatch-3" points="576 128 544 128 544 96 576 96 576 128 576 128"/>
    <polygon class="swatch-5" points="576 96 544 96 544 64 576 64 576 96 576 96"/>
    <polygon class="swatch-5" points="576 96 544 96 544 64 576 64 576 96 576 96"/>
    <polygon class="swatch-5" points="160 672 160 640 224 640 224 672 192 672 160 672 160 672"/>
    <polygon class="swatch-5" points="160 672 160 640 224 640 224 672 192 672 160 672 160 672"/>
    <polygon class="swatch-9" points="64 320 96 320 96 352 64 352 64 320 64 320"/>
    <polygon class="swatch-9" points="64 320 96 320 96 352 64 352 64 320 64 320"/>
    <polygon class="swatch-10" points="64 352 96 352 96 384 64 384 64 352 64 352"/>
    <polygon class="swatch-10" points="64 352 96 352 96 384 64 384 64 352 64 352"/>
    <polygon class="swatch-8" points="672 608 640 608 640 576 672 576 672 608 672 608"/>
    <polygon class="swatch-8" points="672 608 640 608 640 576 672 576 672 608 672 608"/>
    <polygon class="swatch-8" points="704 544 704 576 672 576 672 544 704 544 704 544"/>
    <polygon class="swatch-8" points="704 544 704 576 672 576 672 544 704 544 704 544"/>
    <polygon class="swatch-3" points="544 704 512 704 512 672 576 672 576 704 544 704 544 704"/>
    <polygon class="swatch-3" points="544 704 512 704 512 672 576 672 576 704 544 704 544 704"/>
    <polygon class="swatch-8" points="640 640 608 640 608 608 640 608 640 640 640 640"/>
    <polygon class="swatch-8" points="640 640 608 640 608 608 640 608 640 640 640 640"/>
    <polygon class="swatch-1" points="256 32 256 64 224 64 224 32 256 32 256 32"/>
    <polygon class="swatch-1" points="256 32 256 64 224 64 224 32 256 32 256 32"/>
    <polygon class="swatch-1" points="192 96 192 64 224 64 224 96 192 96 192 96"/>
    <polygon class="swatch-1" points="192 96 192 64 224 64 224 96 192 96 192 96"/>
    <polygon class="swatch-5" points="608 672 576 672 576 640 608 640 608 672 608 672"/>
    <polygon class="swatch-5" points="608 672 576 672 576 640 608 640 608 672 608 672"/>
    <polygon class="swatch-5" points="192 96 224 96 224 128 192 128 192 96 192 96"/>
    <polygon class="swatch-5" points="192 96 224 96 224 128 192 128 192 96 192 96"/>
    <polygon class="swatch-9" points="96 320 96 288 128 288 128 320 96 320 96 320"/>
    <polygon class="swatch-9" points="96 320 96 288 128 288 128 320 96 320 96 320"/>
    <polygon class="swatch-5" points="512 672 512 704 480 704 448 704 256 704 256 672 288 672 320 672 448 672 480 672 512 672 512 672"/>
    <polygon class="swatch-5" points="512 672 512 704 480 704 448 704 256 704 256 672 288 672 320 672 448 672 480 672 512 672 512 672"/>
    <polygon class="swatch-11" points="224 640 224 608 256 608 256 640 224 640 224 640"/>
    <polygon class="swatch-11" points="224 640 224 608 256 608 256 640 224 640 224 640"/>
    <polygon class="swatch-4" points="288 672 256 672 256 640 288 640 288 672 288 672"/>
    <polygon class="swatch-4" points="288 672 256 672 256 640 288 640 288 672 288 672"/>
    <polygon class="swatch-4" points="192 224 192 192 224 192 224 160 256 160 256 128 288 128 288 96 352 96 352 128 320 128 320 160 288 160 288 192 256 192 255.993 223.236 255.827 223.662 255.472 224 224 224 192 224 192 224"/>
    <polygon class="swatch-4" points="192 224 192 192 224 192 224 160 256 160 256 128 288 128 288 96 352 96 352 128 320 128 320 160 288 160 288 192 256 192 255.993 223.236 255.827 223.662 255.472 224 224 224 192 224 192 224"/>
    <polygon class="swatch-2" points="256 64 288 64 288 96 256 96 256 64 256 64"/>
    <polygon class="swatch-2" points="256 64 288 64 288 96 256 96 256 64 256 64"/>
    <polygon class="swatch-2" points="352 96 352 64 384 64 384 96 352 96 352 96"/>
    <polygon class="swatch-2" points="352 96 352 64 384 64 384 96 352 96 352 96"/>
    <polygon class="swatch-4" points="416 64 448 64 448 96 448 128 416 128 384 128 384 96 416 96 416 64 416 64"/>
    <polygon class="swatch-4" points="416 64 448 64 448 96 448 128 416 128 384 128 384 96 416 96 416 64 416 64"/>
    <polygon class="swatch-11" points="448 128 448 96 480 96 512 96 512 128 512 160 480 160 480 128 448 128 448 128"/>
    <polygon class="swatch-11" points="448 128 448 96 480 96 512 96 512 128 512 160 480 160 480 128 448 128 448 128"/>
    <polygon class="swatch-4" points="512 96 480 96 480 64 512 64 512 96 512 96"/>
    <polygon class="swatch-4" points="512 96 480 96 480 64 512 64 512 96 512 96"/>
    <polygon class="swatch-3" points="512 96 512 64 544 64 544 96 512 96 512 96"/>
    <polygon class="swatch-3" points="512 96 512 64 544 64 544 96 512 96 512 96"/>
    <polygon class="swatch-3" points="416 64 416 96 384 96 384 64 416 64 416 64"/>
    <polygon class="swatch-3" points="416 64 416 96 384 96 384 64 416 64 416 64"/>
    <polygon class="swatch-10" points="64 480 64 416 96 416 96 448 127.236 447.993 127.662 447.827 128 447.472 128 416 160 416 160 448 191.236 447.993 191.662 447.827 192 447.472 192 416 224 416 224 480 64 480 64 480"/>
    <polygon class="swatch-10" points="64 480 64 416 96 416 96 448 127.236 447.993 127.662 447.827 128 447.472 128 416 160 416 160 448 191.236 447.993 191.662 447.827 192 447.472 192 416 224 416 224 480 64 480 64 480"/>
    <polygon class="swatch-9" points="64 480 224 480 256 480 256 512 224 512 192 512 192 544 160.482 544 160.157 543.647 160.006 543.214 159.992 512.72 159.73 512.151 128.101 512.151 128.101 543.875 96.05 543.875 96.05 512.024 64 512.024 64 480 64 480"/>
    <polygon class="swatch-9" points="64 480 224 480 256 480 256 512 224 512 192 512 192 544 160.482 544 160.157 543.647 160.006 543.214 159.992 512.72 159.73 512.151 128.101 512.151 128.101 543.875 96.05 543.875 96.05 512.024 64 512.024 64 480 64 480"/>
    <polygon class="swatch-12" points="96 416 64 416 64 384 96 384 96 352 128 352 128 320 160 320 160 288 224 288 224 320 191.875 320 191.875 352.1 159.924 352.1 159.924 384.052 128 384.052 128 416 96 416 96 416"/>
    <polygon class="swatch-12" points="96 416 64 416 64 384 96 384 96 352 128 352 128 320 160 320 160 288 224 288 224 320 191.875 320 191.875 352.1 159.924 352.1 159.924 384.052 128 384.052 128 416 96 416 96 416"/>
    <polygon class="swatch-6" points="704 544 672 544 608 544 608 480 671.236 479.993 671.662 479.827 672 479.472 672 416 672 352 704 352 704 448 704 480 704 544 704 544"/>
    <polygon class="swatch-6" points="704 544 672 544 608 544 608 480 671.236 479.993 671.662 479.827 672 479.472 672 416 672 352 704 352 704 448 704 480 704 544 704 544"/>
    <polygon class="swatch-12" points="672 352 672 416 640 416 640 352 608.758 351.993 608.334 351.823 608 351.466 608 288 640 288 640 320 672 320 672 352 672 352"/>
    <polygon class="swatch-12" points="672 352 672 416 640 416 640 352 608.758 351.993 608.334 351.823 608 351.466 608 288 640 288 640 320 672 320 672 352 672 352"/>
    <polygon class="swatch-13" points="576 224 608 224 608 256 544 256 512 256 512 224 544 224 576 224 576 224"/>
    <polygon class="swatch-13" points="576 224 608 224 608 256 544 256 512 256 512 224 544 224 576 224 576 224"/>
    <polygon class="swatch-12" points="544 256 608 256 608 288 576.191 288 576.191 384.036 608 384.036 608 416 608 448 576 448 576 416 543.934 415.923 543.868 352.213 512.096 352.213 512.096 415.846 543.934 415.923 544 480 512 480 512 448 480 448 480 416 480 384 448 384 448 352 480 352 480 320 512.106 320 512.106 287.93 544 287.93 544 256 544 256"/>
    <polygon class="swatch-12" points="544 256 608 256 608 288 576.191 288 576.191 384.036 608 384.036 608 416 608 448 576 448 576 416 543.934 415.923 543.868 352.213 512.096 352.213 512.096 415.846 543.934 415.923 544 480 512 480 512 448 480 448 480 416 480 384 448 384 448 352 480 352 480 320 512.106 320 512.106 287.93 544 287.93 544 256 544 256"/>
    <polygon class="swatch-3" points="224 160 224 192 192 192 192 160 224 160 224 160"/>
    <polygon class="swatch-3" points="224 160 224 192 192 192 192 160 224 160 224 160"/>
    <polygon class="swatch-2" points="224 160 192 160 192 128 224 128 224 160 224 160"/>
    <polygon class="swatch-2" points="224 160 192 160 192 128 224 128 224 160 224 160"/>
    <polygon class="swatch-5" points="224 288 160 288 160 256 192 256 224 256 224 288 224 288"/>
    <polygon class="swatch-5" points="224 288 160 288 160 256 192 256 224 256 224 288 224 288"/>
    <polygon class="swatch-3" points="224 256 192 256 192 224 224 224 224 256 224 256"/>
    <polygon class="swatch-3" points="224 256 192 256 192 224 224 224 224 256 224 256"/>
    <polygon class="swatch-10" points="160 288 160 320 128 320 128 288 160 288 160 288"/>
    <polygon class="swatch-10" points="160 288 160 320 128 320 128 288 160 288 160 288"/>
    <polygon class="swatch-6" points="256 608 224 608 224 576 256 576 256 608 256 608"/>
    <polygon class="swatch-6" points="256 608 224 608 224 576 256 576 256 608 256 608"/>
    <polygon class="swatch-14" points="256 576 256 544 288 544 288 576 256 576 256 576"/>
    <polygon class="swatch-14" points="256 576 256 544 288 544 288 576 256 576 256 576"/>
    <polygon class="swatch-9" points="288 544 256 544 256 512 288 512 288 544 288 544"/>
    <polygon class="swatch-9" points="288 544 256 544 256 512 288 512 288 544 288 544"/>
    <polygon class="swatch-6" points="192 544 192 512 224 512 224 544 192 544 192 544"/>
    <polygon class="swatch-6" points="192 544 192 512 224 512 224 544 192 544 192 544"/>
    <polygon class="swatch-4" points="544 224 512 224 512 256 480 256 480 288 448 288 448 320 416 320 384 320 352 320 352 288 416 288 416 256 448 256 448 224 480 224 479.993 192.764 479.827 192.338 479.472 192 448 192 448 160 480 160 512 160 544 160 544 192 544 224 544 224"/>
    <polygon class="swatch-4" points="544 224 512 224 512 256 480 256 480 288 448 288 448 320 416 320 384 320 352 320 352 288 416 288 416 256 448 256 448 224 480 224 479.993 192.764 479.827 192.338 479.472 192 448 192 448 160 480 160 512 160 544 160 544 192 544 224 544 224"/>
    <polygon class="swatch-3" points="544 160 512 160 512 128 544 128 544 160 544 160"/>
    <polygon class="swatch-3" points="544 160 512 160 512 128 544 128 544 160 544 160"/>
    <polygon class="swatch-3" points="544 224 544 192 576 192 576 224 544 224 544 224"/>
    <polygon class="swatch-3" points="544 224 544 192 576 192 576 224 544 224 544 224"/>
    <polygon class="swatch-4" points="544 128 512 128 512 96 544 96 544 128 544 128"/>
    <polygon class="swatch-4" points="544 128 512 128 512 96 544 96 544 128 544 128"/>
    <polygon class="swatch-10" points="128 320 128 352 96 352 96 320 128 320 128 320"/>
    <polygon class="swatch-10" points="128 320 128 352 96 352 96 320 128 320 128 320"/>
    <polygon class="swatch-7" points="608 544 672 544 672 576 640 576 640 608 608 608 576 608 576 576 608 576 608 544 608 544"/>
    <polygon class="swatch-7" points="608 544 672 544 672 576 640 576 640 608 608 608 576 608 576 576 608 576 608 544 608 544"/>
    <polygon class="swatch-8" points="576 640 576 672 512 672 512 640 576 640 576 640"/>
    <polygon class="swatch-8" points="576 640 576 672 512 672 512 640 576 640 576 640"/>
    <polygon class="swatch-1" points="576 608 608 608 608 640 576 640 576 608 576 608"/>
    <polygon class="swatch-1" points="576 608 608 608 608 640 576 640 576 608 576 608"/>
    <polygon class="swatch-5" points="256 64 256 96 224 96 224 64 256 64 256 64"/>
    <polygon class="swatch-5" points="256 64 256 96 224 96 224 64 256 64 256 64"/>
    <polygon class="swatch-2" points="224 96 256 96 256 128 224 128 224 96 224 96"/>
    <polygon class="swatch-2" points="224 96 256 96 256 128 224 128 224 96 224 96"/>
    <polygon class="swatch-14" points="448 672 320 672 320 640 448 640 448 672 448 672"/>
    <polygon class="swatch-14" points="448 672 320 672 320 640 448 640 448 672 448 672"/>
    <polygon class="swatch-13" points="512 640 512 672 480 672 480 640 480 608 480 576 512 576 512 608 512 640 512 640"/>
    <polygon class="swatch-13" points="512 640 512 672 480 672 480 640 480 608 480 576 512 576 512 608 512 640 512 640"/>
    <polygon class="swatch-11" points="480 640 480 672 448 672 448 640 480 640 480 640"/>
    <polygon class="swatch-11" points="480 640 480 672 448 672 448 640 480 640 480 640"/>
    <polygon class="swatch-11" points="320 640 320 672 288 672 288 640 320 640 320 640"/>
    <polygon class="swatch-11" points="320 640 320 672 288 672 288 640 320 640 320 640"/>
    <polygon class="swatch-15" points="320 640 288 640 256 640 256 608 256 576 288 576 288 544 320 544 352 544 352 576 384 576 384 608 448 608 448 640 320 640 320 640"/>
    <polygon class="swatch-15" points="320 640 288 640 256 640 256 608 256 576 288 576 288 544 320 544 352 544 352 576 384 576 384 608 448 608 448 640 320 640 320 640"/>
    <polygon class="swatch-11" points="224 256 224 224 255.472 224 255.827 223.662 255.993 223.236 256 192 288 192 320 192 352 192 384 192 384 224 288.775 224.007 288.346 224.165 288 224.517 288 256 256 256 224 256 224 256"/>
    <polygon class="swatch-11" points="224 256 224 224 255.472 224 255.827 223.662 255.993 223.236 256 192 288 192 320 192 352 192 384 192 384 224 288.775 224.007 288.346 224.165 288 224.517 288 256 256 256 224 256 224 256"/>
    <polygon class="swatch-11" points="320 160 320 128 352 128 384 128 384 160 352 160 320 160 320 160"/>
    <polygon class="swatch-11" points="320 160 320 128 352 128 384 128 384 160 352 160 320 160 320 160"/>
    <polygon class="swatch-3" points="320 192 288 192 288 160 320 160 320 192 320 192"/>
    <polygon class="swatch-3" points="320 192 288 192 288 160 320 160 320 192 320 192"/>
    <polygon class="swatch-3" points="224 128 256 128 256 160 224 160 224 128 224 128"/>
    <polygon class="swatch-3" points="224 128 256 128 256 160 224 160 224 128 224 128"/>
    <polygon class="swatch-3" points="256 128 256 96 288 96 288 128 256 128 256 128"/>
    <polygon class="swatch-3" points="256 128 256 96 288 96 288 128 256 128 256 128"/>
    <polygon class="swatch-3" points="384 128 352 128 352 96 384 96 384 128 384 128"/>
    <polygon class="swatch-3" points="384 128 352 128 352 96 384 96 384 128 384 128"/>
    <polygon class="swatch-11" points="416 128 448 128 448 160 416 160 416 128 416 128"/>
    <polygon class="swatch-11" points="416 128 448 128 448 160 416 160 416 128 416 128"/>
    <polygon class="swatch-14" points="416 128 416 160 384 160 384 128 416 128 416 128"/>
    <polygon class="swatch-14" points="416 128 416 160 384 160 384 128 416 128 416 128"/>
    <polygon class="swatch-14" points="448 160 448 128 480 128 480 160 448 160 448 160"/>
    <polygon class="swatch-14" points="448 160 448 128 480 128 480 160 448 160 448 160"/>
    <polygon class="swatch-12" points="256 480 224 480 224 416 192 416 192 384 223.225 383.993 223.654 383.835 224.171 383.304 224.171 352 255.242 351.993 255.666 351.823 256 351.466 256 320 288 320 288.007 351.236 288.173 351.662 288.528 352 320 352 320 384 288 384 288 416 256 416 256 448 256 480 256 480"/>
    <polygon class="swatch-12" points="256 480 224 480 224 416 192 416 192 384 223.225 383.993 223.654 383.835 224.171 383.304 224.171 352 255.242 351.993 255.666 351.823 256 351.466 256 320 288 320 288.007 351.236 288.173 351.662 288.528 352 320 352 320 384 288 384 288 416 256 416 256 448 256 480 256 480"/>
    <polygon class="swatch-15" points="256 320 256 351.466 255.666 351.823 255.242 351.993 224.171 352 224.171 383.304 223.654 383.835 223.225 383.993 192 384 192 416 160 416 128 416 128 384.052 159.924 384.052 159.924 352.1 191.875 352.1 191.875 320 224 320 256 320 256 320"/>
    <polygon class="swatch-15" points="256 320 256 351.466 255.666 351.823 255.242 351.993 224.171 352 224.171 383.304 223.654 383.835 223.225 383.993 192 384 192 416 160 416 128 416 128 384.052 159.924 384.052 159.924 352.1 191.875 352.1 191.875 320 224 320 256 320 256 320"/>
    <polygon class="swatch-15" points="96 416 128 416 128 447.472 127.662 447.827 127.236 447.993 96 448 96 416 96 416"/>
    <polygon class="swatch-15" points="96 416 128 416 128 447.472 127.662 447.827 127.236 447.993 96 448 96 416 96 416"/>
    <polygon class="swatch-12" points="160 416 192 416 192 447.472 191.662 447.827 191.236 447.993 160 448 160 416 160 416"/>
    <polygon class="swatch-12" points="160 416 192 416 192 447.472 191.662 447.827 191.236 447.993 160 448 160 416 160 416"/>
    <polygon class="swatch-1" points="288 512 256 512 256 480 288 480 288 512 288 512"/>
    <polygon class="swatch-1" points="288 512 256 512 256 480 288 480 288 512 288 512"/>
    <polygon class="swatch-10" points="256 320 224 320 224 288 256 288 256 320 256 320"/>
    <polygon class="swatch-10" points="256 320 224 320 224 288 256 288 256 320 256 320"/>
    <polygon class="swatch-9" points="576 448 608 448 640 448 640 416 672 416 672 479.472 671.662 479.827 671.236 479.993 608 480 608 544 576 544 576 576 544 576 544 512 576 512 576 480 576 448 576 448"/>
    <polygon class="swatch-9" points="576 448 608 448 640 448 640 416 672 416 672 479.472 671.662 479.827 671.236 479.993 608 480 608 544 576 544 576 576 544 576 544 512 576 512 576 480 576 448 576 448"/>
    <polygon class="swatch-15" points="608 416 608 384.036 576.191 384.036 576.191 288 608 288 608 351.466 608.334 351.823 608.758 351.993 640 352 640 416 608 416 608 416"/>
    <polygon class="swatch-15" points="608 416 608 384.036 576.191 384.036 576.191 288 608 288 608 351.466 608.334 351.823 608.758 351.993 640 352 640 416 608 416 608 416"/>
    <polygon class="swatch-10" points="480 288 480 256 512 256 544 256 544 287.93 512.106 287.93 512.106 320 480 320 480 288 480 288"/>
    <polygon class="swatch-10" points="480 288 480 256 512 256 544 256 544 287.93 512.106 287.93 512.106 320 480 320 480 288 480 288"/>
    <polygon class="swatch-7" points="480 416 480 448 448 448 416 448 416 384 448 384 448 416 480 416 480 416"/>
    <polygon class="swatch-7" points="480 416 480 448 448 448 416 448 416 384 448 384 448 416 480 416 480 416"/>
    <polygon class="swatch-10" points="416 320 448 320 480 320 480 352 448 352 416 352 416 320 416 320"/>
    <polygon class="swatch-10" points="416 320 448 320 480 320 480 352 448 352 416 352 416 320 416 320"/>
    <polygon class="swatch-15" points="543.868 415.846 512.096 415.846 512.096 352.213 543.868 352.213 543.868 415.846 543.868 415.846"/>
    <polygon class="swatch-15" points="543.868 415.846 512.096 415.846 512.096 352.213 543.868 352.213 543.868 415.846 543.868 415.846"/>
    <polygon class="swatch-15" points="576 448 576 480 544 480 544 416 576 416 576 448 576 448"/>
    <polygon class="swatch-15" points="576 448 576 480 544 480 544 416 576 416 576 448 576 448"/>
    <polygon class="swatch-10" points="480 448 512 448 512 480 480 480 480 448 480 448"/>
    <polygon class="swatch-10" points="480 448 512 448 512 480 480 480 480 448 480 448"/>
    <polygon class="swatch-10" points="608 416 640 416 640 448 608 448 608 416 608 416"/>
    <polygon class="swatch-10" points="608 416 640 416 640 448 608 448 608 416 608 416"/>
    <polygon class="swatch-9" points="512 480 544 480 544 512 512 512 512 480 512 480"/>
    <polygon class="swatch-9" points="512 480 544 480 544 512 512 512 512 480 512 480"/>
    <polygon class="swatch-9" points="416 352 448 352 448 384 416 384 416 352 416 352"/>
    <polygon class="swatch-9" points="416 352 448 352 448 384 416 384 416 352 416 352"/>
    <polygon class="swatch-9" points="480 416 448 416 448 384 480 384 480 416 480 416"/>
    <polygon class="swatch-9" points="480 416 448 416 448 384 480 384 480 416 480 416"/>
    <polygon class="swatch-3" points="256 288 224 288 224 256 256 256 256 288 256 288"/>
    <polygon class="swatch-3" points="256 288 224 288 224 256 256 256 256 288 256 288"/>
    <polygon class="swatch-4" points="320 544 288 544 288 512 320 512 320 544 320 544"/>
    <polygon class="swatch-4" points="320 544 288 544 288 512 320 512 320 544 320 544"/>
    <polygon class="swatch-9" points="256 320 256 288 288 288 352 288 352 320 384 320 384 352 320 352 288.528 352 288.173 351.662 288.007 351.236 288 320 256 320 256 320"/>
    <polygon class="swatch-9" points="256 320 256 288 288 288 352 288 352 320 384 320 384 352 320 352 288.528 352 288.173 351.662 288.007 351.236 288 320 256 320 256 320"/>
    <polygon class="swatch-11" points="352 288 288 288 288 256 416 256 416 288 352 288 352 288"/>
    <polygon class="swatch-11" points="352 288 288 288 288 256 416 256 416 288 352 288 352 288"/>
    <polygon class="swatch-11" points="448 224 448 256 416 256 416 192 448 192 448 224 448 224"/>
    <polygon class="swatch-11" points="448 224 448 256 416 256 416 192 448 192 448 224 448 224"/>
    <polygon class="swatch-3" points="448 192 416 192 416 160 448 160 448 192 448 192"/>
    <polygon class="swatch-3" points="448 192 416 192 416 160 448 160 448 192 448 192"/>
    <polygon class="swatch-9" points="480 320 448 320 448 288 480 288 480 320 480 320"/>
    <polygon class="swatch-9" points="480 320 448 320 448 288 480 288 480 320 480 320"/>
    <polygon class="swatch-11" points="384 352 384 320 416 320 416 352 384 352 384 352"/>
    <polygon class="swatch-11" points="384 352 384 320 416 320 416 352 384 352 384 352"/>
    <polygon class="swatch-14" points="448 224 448 192 479.472 192 479.827 192.338 479.993 192.764 480 224 448 224 448 224"/>
    <polygon class="swatch-14" points="448 224 448 192 479.472 192 479.827 192.338 479.993 192.764 480 224 448 224 448 224"/>
    <polygon class="swatch-6" points="544 576 576 576 576 608 576 640 512 640 512 608 544 608 544 576 544 576"/>
    <polygon class="swatch-6" points="544 576 576 576 576 608 576 640 512 640 512 608 544 608 544 576 544 576"/>
    <polygon class="swatch-6" points="576 576 576 544 608 544 608 576 576 576 576 576"/>
    <polygon class="swatch-6" points="576 576 576 544 608 544 608 576 576 576 576 576"/>
    <polygon class="swatch-11" points="448 608 384 608 384 576 416 576 448 576 448 544 480 544 480 576 480 608 448 608 448 608"/>
    <polygon class="swatch-11" points="448 608 384 608 384 576 416 576 448 576 448 544 480 544 480 576 480 608 448 608 448 608"/>
    <polygon class="swatch-6" points="480 576 480 544 480 512 480 480 512 480 512 512 512 576 480 576 480 576"/>
    <polygon class="swatch-6" points="480 576 480 544 480 512 480 480 512 480 512 512 512 576 480 576 480 576"/>
    <polygon class="swatch-10" points="512 576 512 512 544 512 544 576 544 608 512 608 512 576 512 576"/>
    <polygon class="swatch-10" points="512 576 512 512 544 512 544 576 544 608 512 608 512 576 512 576"/>
    <polygon class="swatch-14" points="448 608 480 608 480 640 448 640 448 608 448 608"/>
    <polygon class="swatch-14" points="448 608 480 608 480 640 448 640 448 608 448 608"/>
    <polygon class="swatch-14" points="416 576 384 576 352 576 352 544 384 544 416 544 416 576 416 576"/>
    <polygon class="swatch-14" points="416 576 384 576 352 576 352 544 384 544 416 544 416 576 416 576"/>
    <polygon class="swatch-13" points="320 544 320 512 352 512 352 544 320 544 320 544"/>
    <polygon class="swatch-13" points="320 544 320 512 352 512 352 544 320 544 320 544"/>
    <polygon class="swatch-14" points="416 192 416 256 288 256 288 224.517 288.346 224.165 288.775 224.007 384 224 384 192 416 192 416 192"/>
    <polygon class="swatch-14" points="416 192 416 256 288 256 288 224.517 288.346 224.165 288.775 224.007 384 224 384 192 416 192 416 192"/>
    <polygon class="swatch-3" points="352 160 384 160 384 192 352 192 352 160 352 160"/>
    <polygon class="swatch-3" points="352 160 384 160 384 192 352 192 352 160 352 160"/>
    <polygon class="swatch-4" points="352 160 352 192 320 192 320 160 352 160 352 160"/>
    <polygon class="swatch-4" points="352 160 352 192 320 192 320 160 352 160 352 160"/>
    <polygon class="swatch-4" points="288 256 288 288 256 288 256 256 288 256 288 256"/>
    <polygon class="swatch-4" points="288 256 288 288 256 288 256 256 288 256 288 256"/>
    <polygon class="swatch-4" points="384 192 384 160 416 160 416 192 384 192 384 192"/>
    <polygon class="swatch-4" points="384 192 384 160 416 160 416 192 384 192 384 192"/>
    <polygon class="swatch-7" points="384 352 416 352 416 384 384 384 384 448 352 448 351.993 416.764 351.827 416.338 351.472 416 320 416 320 384 320 352 384 352 384 352"/>
    <polygon class="swatch-7" points="384 352 416 352 416 384 384 384 384 448 352 448 351.993 416.764 351.827 416.338 351.472 416 320 416 320 384 320 352 384 352 384 352"/>
    <polygon class="swatch-8" points="288 480 256 480 256 448 288 448 288 480 288 480"/>
    <polygon class="swatch-8" points="288 480 256 480 256 448 288 448 288 480 288 480"/>
    <polygon class="swatch-13" points="320 384 320 416 288 416 288 384 320 384 320 384"/>
    <polygon class="swatch-13" points="320 384 320 416 288 416 288 384 320 384 320 384"/>
    <polygon class="swatch-9" points="288 448 256 448 256 416 288 416 288 448 288 448"/>
    <polygon class="swatch-9" points="288 448 256 448 256 416 288 416 288 448 288 448"/>
    <polygon class="swatch-8" points="352 544 352 512 320 512 288 512 288 480 384 480 384 448 416 448 416 512 384 512 384 544 352 544 352 544"/>
    <polygon class="swatch-8" points="352 544 352 512 320 512 288 512 288 480 384 480 384 448 416 448 416 512 384 512 384 544 352 544 352 544"/>
    <polygon class="swatch-10" points="544 512 544 480 576 480 576 512 544 512 544 512"/>
    <polygon class="swatch-10" points="544 512 544 480 576 480 576 512 544 512 544 512"/>
    <polygon class="swatch-8" points="480 480 480 512 448 512 448 448 480 448 480 480 480 480"/>
    <polygon class="swatch-8" points="480 480 480 512 448 512 448 448 480 448 480 480 480 480"/>
    <polygon class="swatch-1" points="448 448 448 512 416 512 416 448 448 448 448 448"/>
    <polygon class="swatch-1" points="448 448 448 512 416 512 416 448 448 448 448 448"/>
    <polygon class="swatch-13" points="416 448 384 448 384 384 416 384 416 448 416 448"/>
    <polygon class="swatch-13" points="416 448 384 448 384 384 416 384 416 448 416 448"/>
    <polygon class="swatch-15" points="416 576 416 544 448 544 448 576 416 576 416 576"/>
    <polygon class="swatch-15" points="416 576 416 544 448 544 448 576 416 576 416 576"/>
    <polygon class="swatch-13" points="448 512 480 512 480 544 448 544 448 512 448 512"/>
    <polygon class="swatch-13" points="448 512 480 512 480 544 448 544 448 512 448 512"/>
    <polygon class="swatch-7" points="448 512 448 544 416 544 384 544 384 512 416 512 448 512 448 512"/>
    <polygon class="swatch-7" points="448 512 448 544 416 544 384 544 384 512 416 512 448 512 448 512"/>
    <polygon class="swatch-1" points="384 448 384 480 288 480 288 448 288 416 320 416 351.472 416 351.827 416.338 351.993 416.764 352 448 384 448 384 448"/>
    <polygon class="swatch-1" points="384 448 384 480 288 480 288 448 288 416 320 416 351.472 416 351.827 416.338 351.993 416.764 352 448 384 448 384 448"/>
  </g>
</svg>
